<svg width="30" height="30" viewBox="0 0 30 30" fill="none" xmlns="http://www.w3.org/2000/svg">
<path d="M14.9548 2.00002L23.0865 19.3241C23.1232 19.4229 23.1308 19.53 23.1083 19.6329C23.0859 19.7358 23.0343 19.8301 22.9599 19.9046C22.8854 19.9791 22.7911 20.0306 22.6882 20.053C22.5853 20.0755 22.4782 20.0679 22.3794 20.0312L14.9548 17.5564L7.53019 20.0312C7.43147 20.0679 7.32429 20.0755 7.2214 20.053C7.1185 20.0306 7.02422 19.9791 6.94975 19.9046C6.87528 19.8301 6.82375 19.7358 6.8013 19.6329C6.77885 19.53 6.78641 19.4229 6.82308 19.3241L14.9548 2.00002Z" stroke="black" stroke-width="2" stroke-linecap="round" stroke-linejoin="round"/>
</svg>
