<svg width="29" height="29" viewBox="0 0 29 29" fill="none" xmlns="http://www.w3.org/2000/svg">
<path fill-rule="evenodd" clip-rule="evenodd" d="M14.4 0C10.5809 0 6.91819 1.51714 4.21766 4.21766C1.51714 6.91819 0 10.5809 0 14.4C0 18.2191 1.51714 21.8818 4.21766 24.5823C6.91819 27.2829 10.5809 28.8 14.4 28.8C18.2191 28.8 21.8818 27.2829 24.5823 24.5823C27.2829 21.8818 28.8 18.2191 28.8 14.4C28.8 10.5809 27.2829 6.91819 24.5823 4.21766C21.8818 1.51714 18.2191 0 14.4 0V0ZM9 17.6886C8.76911 17.8542 8.49213 17.9432 8.208 17.9432C7.92387 17.9432 7.64689 17.8542 7.416 17.6886L3.9276 14.9634C3.4902 14.6214 3.4902 14.067 3.9276 13.725L7.416 10.9998C7.64636 10.8329 7.92355 10.7431 8.208 10.7431C8.49245 10.7431 8.76964 10.8329 9 10.9998V17.6886ZM11.0556 7.3566L13.7808 3.87C14.1228 3.4326 14.6772 3.4326 15.0174 3.87L17.7408 7.3584C17.9097 7.58827 18.0008 7.86606 18.0008 8.1513C18.0008 8.43654 17.9097 8.71433 17.7408 8.9442H11.0574C10.8909 8.71343 10.8011 8.43616 10.8008 8.15159C10.8005 7.86702 10.8896 7.58955 11.0556 7.3584V7.3566ZM17.7426 21.2922L15.0192 24.7824C14.6718 25.2198 14.1192 25.2198 13.779 24.7824L11.0574 21.2922C10.8904 21.0622 10.8005 20.7853 10.8005 20.5011C10.8005 20.2169 10.8904 19.94 11.0574 19.71H17.7426C17.9101 19.9398 18.0004 20.2168 18.0004 20.5011C18.0004 20.7854 17.9101 21.0624 17.7426 21.2922ZM21.3858 17.685C21.1552 17.852 20.8777 17.942 20.5929 17.942C20.3081 17.942 20.0306 17.852 19.8 17.685V10.9998C20.0305 10.8332 20.3076 10.7435 20.592 10.7435C20.8764 10.7435 21.1535 10.8332 21.384 10.9998L24.8706 13.7232C25.3098 14.067 25.3098 14.6232 24.8706 14.9634L21.384 17.685H21.3858Z" fill="white"/>
</svg>
