<svg width="19" height="20" viewBox="0 0 19 20" fill="none" xmlns="http://www.w3.org/2000/svg">
<path d="M0.293962 19.2938C0.411452 19.4152 0.563063 19.498 0.728694 19.5313C0.894324 19.5645 1.06615 19.5466 1.22139 19.48L9.14162 16.0861L17.0625 19.4806C17.2156 19.5463 17.3849 19.5646 17.5486 19.5331C17.7122 19.5016 17.8627 19.4217 17.9805 19.3038L17.9899 19.2944C18.1073 19.1732 18.1852 19.0191 18.2132 18.8527C18.2412 18.6862 18.218 18.5152 18.1466 18.3623L9.89759 0.68578C9.83072 0.541739 9.72409 0.419807 9.59024 0.33434C9.45639 0.248874 9.30091 0.203434 9.14211 0.203372C8.9833 0.20331 8.82779 0.248627 8.69388 0.33399C8.55996 0.419352 8.45323 0.541202 8.38625 0.68519L0.13723 18.3617C0.0659334 18.5148 0.0428007 18.6859 0.0708921 18.8525C0.0989836 19.019 0.176976 19.1731 0.294551 19.2944L0.293962 19.2938Z" fill="black"/>
</svg>
