<svg width="28" height="32" viewBox="0 0 28 32" fill="none" xmlns="http://www.w3.org/2000/svg">
<path d="M14.5538 0.167481C14.3896 0.0582677 14.1969 0 13.9998 0C13.8026 0 13.6099 0.0582677 13.4458 0.167481C9.67011 2.71283 5.36615 4.36836 0.857986 5.0094C0.619791 5.04357 0.401905 5.16249 0.244307 5.34433C0.0867086 5.52618 -3.20774e-05 5.75875 8.89862e-09 5.99938V14.9992C8.89862e-09 22.7811 4.61392 28.459 13.6398 31.933C13.8714 32.0223 14.1281 32.0223 14.3598 31.933C23.3856 28.459 27.9995 22.7791 27.9995 14.9992V5.99938C27.9995 5.75845 27.9125 5.52563 27.7545 5.34375C27.5965 5.16186 27.3781 5.04313 27.1395 5.0094C22.6321 4.36806 18.3288 2.71255 14.5538 0.167481V0.167481ZM13.9998 7.49936C14.3976 7.49936 14.7791 7.65739 15.0604 7.93869C15.3417 8.21999 15.4997 8.60152 15.4997 8.99933V18.9992C15.4997 19.397 15.3417 19.7785 15.0604 20.0598C14.7791 20.3411 14.3976 20.4991 13.9998 20.4991C13.6019 20.4991 13.2204 20.3411 12.9391 20.0598C12.6578 19.7785 12.4998 19.397 12.4998 18.9992V8.99933C12.4998 8.60152 12.6578 8.21999 12.9391 7.93869C13.2204 7.65739 13.6019 7.49936 13.9998 7.49936ZM15.4997 23.4991C15.4997 23.8969 15.3417 24.2784 15.0604 24.5597C14.7791 24.841 14.3976 24.9991 13.9998 24.9991C13.6019 24.9991 13.2204 24.841 12.9391 24.5597C12.6578 24.2784 12.4998 23.8969 12.4998 23.4991C12.4998 23.1013 12.6578 22.7198 12.9391 22.4385C13.2204 22.1572 13.6019 21.9991 13.9998 21.9991C14.3976 21.9991 14.7791 22.1572 15.0604 22.4385C15.3417 22.7198 15.4997 23.1013 15.4997 23.4991Z" fill="black"/>
</svg>
