<svg width="26" height="25" viewBox="0 0 26 25" fill="none" xmlns="http://www.w3.org/2000/svg">
<path d="M15.4384 0.985604C16.4323 0.0539438 18.0603 0.758917 18.0603 2.12153V25.002C18.0603 26.3646 16.4336 27.0696 15.4384 26.1379L9.2892 20.3761C8.88542 19.9977 8.35287 19.7871 7.79954 19.7869H4.04799C2.97439 19.7869 1.94477 19.3605 1.18563 18.6013C0.426483 17.8422 0 16.8126 0 15.739V11.3896C0 10.316 0.426483 9.28634 1.18563 8.52719C1.94477 7.76805 2.97439 7.34157 4.04799 7.34157H7.79829C8.35256 7.34157 8.88564 7.12983 9.2892 6.75243L15.4384 0.985604V0.985604Z" fill="white"/>
<path d="M22.8593 6.46741C22.7857 6.36927 22.6935 6.28659 22.5879 6.22409C22.4824 6.16159 22.3655 6.12049 22.2441 6.10314C22.1226 6.08579 21.999 6.09253 21.8801 6.12298C21.7613 6.15342 21.6496 6.20698 21.5515 6.28058C21.4533 6.35418 21.3707 6.4464 21.3082 6.55196C21.2457 6.65752 21.2046 6.77435 21.1872 6.89579C21.1699 7.01723 21.1766 7.1409 21.2071 7.25974C21.2375 7.37858 21.2911 7.49025 21.3647 7.58839C22.6592 9.311 23.3575 11.4084 23.3538 13.5632C23.3538 15.8052 22.6139 17.8728 21.3647 19.5381C21.2911 19.6362 21.2375 19.7479 21.2071 19.8667C21.1766 19.9855 21.1699 20.1092 21.1872 20.2307C21.2046 20.3521 21.2457 20.4689 21.3082 20.5745C21.3707 20.68 21.4533 20.7723 21.5515 20.8459C21.6496 20.9195 21.7613 20.973 21.8801 21.0035C21.999 21.0339 22.1226 21.0407 22.2441 21.0233C22.3655 21.006 22.4824 20.9649 22.5879 20.9024C22.6935 20.8399 22.7857 20.7572 22.8593 20.659C24.3965 18.6131 25.2259 16.1223 25.2221 13.5632C25.2221 10.9015 24.3427 8.44407 22.8593 6.46741Z" fill="white"/>
</svg>
