<svg width="29" height="29" viewBox="0 0 29 29" fill="none" xmlns="http://www.w3.org/2000/svg">
<path d="M14.4 0C6.59376 0 0 6.5952 0 14.4C0 22.2048 6.59376 28.8 14.4 28.8C22.2062 28.8 28.8 22.2048 28.8 14.4C28.8 6.5952 22.2062 0 14.4 0ZM14.4 25.92C8.15472 25.92 2.88 20.6438 2.88 14.4C2.88 8.64288 7.3656 3.71952 12.96 2.98512V5.8896C8.88048 6.57936 5.76 10.1275 5.76 14.4C5.76 19.165 9.63504 23.04 14.4 23.04C16.6968 23.04 18.864 22.1386 20.5013 20.5013L18.4651 18.4637C17.9334 19.0012 17.3003 19.4279 16.6025 19.7191C15.9047 20.0103 15.1561 20.1601 14.4 20.16C11.2234 20.16 8.64 17.5766 8.64 14.4C8.64 11.7245 10.4818 9.48816 12.96 8.84448V11.9347C12.1104 12.443 11.52 13.3646 11.52 14.4C11.52 15.9566 12.8434 17.28 14.4 17.28C15.9566 17.28 17.28 15.9566 17.28 14.4C17.28 13.3646 16.6896 12.443 15.84 11.9347V2.98512C21.4344 3.71952 25.92 8.64288 25.92 14.4C25.92 20.6438 20.6453 25.92 14.4 25.92Z" fill="white"/>
</svg>
