<svg width="29" height="29" viewBox="0 0 29 29" fill="none" xmlns="http://www.w3.org/2000/svg">
<path fill-rule="evenodd" clip-rule="evenodd" d="M28.8 1.79904C28.7998 1.49234 28.7213 1.19076 28.5719 0.922928C28.4224 0.655097 28.207 0.429895 27.9461 0.268689C27.6852 0.107484 27.3874 0.0156229 27.081 0.00182318C26.7746 -0.0119766 26.4698 0.0527424 26.1954 0.189839L12.1734 7.19904H5.4C3.96783 7.19904 2.59432 7.76797 1.58162 8.78066C0.568927 9.79336 0 11.1669 0 12.599C0 14.0312 0.568927 15.4047 1.58162 16.4174C2.59432 17.4301 3.96783 17.999 5.4 17.999H5.904L9.0918 27.5678C9.21123 27.9264 9.44049 28.2383 9.74709 28.4593C10.0537 28.6803 10.4221 28.7991 10.8 28.799H12.6C13.0774 28.799 13.5352 28.6094 13.8728 28.2718C14.2104 27.9343 14.4 27.4764 14.4 26.999V19.1114L26.1954 25.0082C26.4698 25.1453 26.7746 25.2101 27.081 25.1963C27.3874 25.1825 27.6852 25.0906 27.9461 24.9294C28.207 24.7682 28.4224 24.543 28.5719 24.2751C28.7213 24.0073 28.7998 23.7057 28.8 23.399V1.79904Z" fill="white"/>
</svg>
