<svg width="24" height="24" viewBox="0 0 24 24" fill="none" xmlns="http://www.w3.org/2000/svg">
<path d="M17.9263 12.4286L20.3203 10.0346C20.481 9.87383 20.5712 9.65586 20.5712 9.42857C20.5712 9.20129 20.481 8.98331 20.3203 8.82257L18.3549 6.85714L20.1429 5.06914L22.788 7.71429L24 6.50229L17.4977 0L16.2857 1.212L18.9309 3.85714L17.1429 5.64514L15.1774 3.67971C15.0167 3.51903 14.7987 3.42875 14.5714 3.42875C14.3441 3.42875 14.1262 3.51903 13.9654 3.67971L11.5714 6.07371L5.74886 0.251143C5.58812 0.0904534 5.37014 0.000183105 5.14286 0.000183105C4.91557 0.000183105 4.6976 0.0904534 4.53686 0.251143L0.251143 4.53686C0.0904534 4.6976 0.000183105 4.91557 0.000183105 5.14286C0.000183105 5.37014 0.0904534 5.58812 0.251143 5.74886L6.07371 11.5714L3.67971 13.9654C3.51903 14.1262 3.42875 14.3441 3.42875 14.5714C3.42875 14.7987 3.51903 15.0167 3.67971 15.1774L5.64514 17.1429L3.85714 18.9309L1.212 16.2857L0 17.4977L6.50229 24L7.71429 22.788L5.06914 20.1429L6.85714 18.3549L8.82257 20.3203C8.98331 20.481 9.20129 20.5712 9.42857 20.5712C9.65586 20.5712 9.87383 20.481 10.0346 20.3203L12.4286 17.9263L18.2511 23.7489C18.4119 23.9095 18.6299 23.9998 18.8571 23.9998C19.0844 23.9998 19.3024 23.9095 19.4631 23.7489L23.7489 19.4631C23.9095 19.3024 23.9998 19.0844 23.9998 18.8571C23.9998 18.6299 23.9095 18.4119 23.7489 18.2511L17.9263 12.4286ZM2.06914 5.14286L5.14286 2.06914L6.93086 3.85714L3.85714 6.93086L2.06914 5.14286ZM5.06914 8.14286L8.14286 5.06914L10.3594 7.28571L7.28571 10.3594L5.06914 8.14286ZM9.42857 18.5023L5.49771 14.5714L14.5714 5.49771L18.5023 9.42857L9.42857 18.5023ZM13.6406 16.7143L16.7143 13.6406L18.9309 15.8571L15.8571 18.9309L13.6406 16.7143ZM18.8571 21.9309L17.0691 20.1429L20.1429 17.0691L21.9309 18.8571L18.8571 21.9309Z" fill="black"/>
</svg>
