<svg width="48" height="48" viewBox="0 0 48 48" fill="none" xmlns="http://www.w3.org/2000/svg">
<path d="M45.3333 41.3332C43.8667 41.1999 42.5333 40.6665 41.3333 39.7332C40.6667 39.0665 39.7333 38.6665 38.6667 38.6665C37.7333 38.6665 36.6667 39.0665 36 39.7332C34.8 40.7999 33.3333 41.1999 31.8667 41.1999C30.2667 41.1999 28.6667 40.6665 27.4667 39.7332C25.8667 38.2665 23.4667 38.2665 22 39.7332C20.8 40.7999 19.2 41.3332 17.4667 41.3332C15.8667 41.3332 14.4 40.7999 13.2 39.7332C12.4 39.0665 11.4667 38.6665 10.5333 38.6665C9.46667 38.6665 8.26667 39.0665 7.46667 39.7332C6.13333 40.7999 4.4 41.3332 2.8 41.1999V38.6665C3.86667 38.6665 5.06667 38.2665 5.86667 37.4665C7.2 36.3999 8.8 35.8665 10.4 35.9999C12 35.9999 13.6 36.5332 14.8 37.5999C16.4 39.0665 18.8 39.0665 20.4 37.5999C22.9333 35.4665 26.6667 35.4665 29.0667 37.5999C30.6667 39.0665 33.0667 39.0665 34.5333 37.5999C35.7333 36.5332 37.3333 35.9999 38.9333 35.9999C40.4 35.9999 41.8667 36.5332 42.9333 37.5999C43.7333 38.2665 44 38.6665 45.3333 38.6665V41.3332Z" fill="black"/>
<path d="M5.46667 34.9334C6.26667 34.2667 7.06667 33.8667 8 33.6001V30.6667C8 29.8667 8.53333 29.2001 9.33333 29.2001H42.6667L37.8667 33.3334H38.1333C39.2 33.3334 40.2667 33.6001 41.0667 34.0001L44.4 31.0667L44.6667 30.8001C45.6 29.6001 45.3333 28.0001 44.1333 27.0667C43.8667 26.8001 43.2 26.6667 42.6667 26.6667H9.33333C7.06667 26.6667 5.33333 28.4001 5.33333 30.6667L5.46667 34.9334Z" fill="black"/>
<path d="M19.8667 25.2001H11.8667C10.4 25.2001 9.2 24.0001 9.2 22.5335C9.2 22.0001 9.33333 21.4668 9.73333 20.9335L15.2 13.2001C16 12.0001 17.7333 11.7335 18.9333 12.5335C19.6 13.0668 20 13.8668 20 14.6668V25.2001H19.8667Z" fill="black"/>
<path d="M32.4 25.2H21.3333V8.53337C21.3333 7.0667 22.5333 5.8667 24 5.8667C24.9333 5.8667 25.7333 6.40003 26.2667 7.20003L34.6667 21.0667C35.4667 22.4 34.9333 24 33.7333 24.6667C33.3333 24.9334 32.8 25.0667 32.4 25.2Z" fill="black"/>
</svg>
