<svg width="29" height="26" viewBox="0 0 29 26" fill="none" xmlns="http://www.w3.org/2000/svg">
<path d="M16.7974 1.08518C16.7979 0.871702 16.7284 0.662866 16.5978 0.484904C16.4672 0.306942 16.2812 0.16779 16.0633 0.0849268C15.8454 0.00206394 15.6052 -0.0208149 15.3729 0.0191642C15.1406 0.0591433 14.9266 0.160197 14.7577 0.309633L7.73641 6.48369H3.59945C2.64481 6.48369 1.72928 6.82604 1.05425 7.43544C0.379227 8.04484 0 8.87137 0 9.73319V16.2105C0 17.0723 0.379227 17.8989 1.05425 18.5083C1.72928 19.1177 2.64481 19.46 3.59945 19.46H7.73401L14.7553 25.6882C14.9239 25.8383 15.138 25.9399 15.3704 25.9804C15.6029 26.0209 15.8434 25.9984 16.0617 25.9157C16.2801 25.833 16.4664 25.6938 16.5973 25.5158C16.7282 25.3377 16.7979 25.1286 16.7974 24.9149V1.08518Z" fill="white"/>
<path d="M19.5474 8.98375C19.6589 8.88288 19.7913 8.80285 19.9371 8.74824C20.0828 8.69363 20.2391 8.66553 20.3969 8.66553C20.5547 8.66553 20.711 8.69363 20.8568 8.74824C21.0025 8.80285 21.1349 8.88288 21.2464 8.98375L23.9964 11.4685L26.7463 8.98375C26.9716 8.78036 27.2772 8.66609 27.5958 8.66609C27.9144 8.66609 28.22 8.78036 28.4453 8.98375C28.6706 9.18714 28.7971 9.46299 28.7971 9.75063C28.7971 10.0383 28.6706 10.3141 28.4453 10.5175L25.6929 13.0001L28.4453 15.4828C28.6706 15.6861 28.7971 15.962 28.7971 16.2496C28.7971 16.5373 28.6706 16.8131 28.4453 17.0165C28.22 17.2199 27.9144 17.3342 27.5958 17.3342C27.2772 17.3342 26.9716 17.2199 26.7463 17.0165L23.9964 14.5317L21.2464 17.0165C21.0211 17.2199 20.7155 17.3342 20.3969 17.3342C20.0783 17.3342 19.7727 17.2199 19.5474 17.0165C19.3221 16.8131 19.1956 16.5373 19.1956 16.2496C19.1956 15.962 19.3221 15.6861 19.5474 15.4828L22.2998 13.0001L19.5474 10.5175C19.4357 10.4169 19.3471 10.2974 19.2866 10.1658C19.2261 10.0342 19.1949 9.8931 19.1949 9.75063C19.1949 9.60816 19.2261 9.46708 19.2866 9.33549C19.3471 9.20389 19.4357 9.08436 19.5474 8.98375V8.98375Z" fill="white"/>
</svg>
