<svg width="20" height="18" viewBox="0 0 20 18" fill="none" xmlns="http://www.w3.org/2000/svg">
<path d="M12.8 1.6131L19.501 12.7741C20.464 14.3771 19.991 16.4861 18.444 17.4841C17.9248 17.8203 17.3196 17.9995 16.701 18.0001H3.298C1.477 18.0001 0 16.4701 0 14.5811C0 13.9421 0.173 13.3171 0.498 12.7741L7.2 1.6131C8.162 0.0101024 10.196 -0.480898 11.743 0.517102C12.171 0.793102 12.533 1.1681 12.8 1.6131V1.6131ZM10 14.0001C10.2652 14.0001 10.5196 13.8947 10.7071 13.7072C10.8946 13.5197 11 13.2653 11 13.0001C11 12.7349 10.8946 12.4805 10.7071 12.293C10.5196 12.1055 10.2652 12.0001 10 12.0001C9.73478 12.0001 9.48043 12.1055 9.29289 12.293C9.10536 12.4805 9 12.7349 9 13.0001C9 13.2653 9.10536 13.5197 9.29289 13.7072C9.48043 13.8947 9.73478 14.0001 10 14.0001V14.0001ZM10 5.0001C9.73478 5.0001 9.48043 5.10546 9.29289 5.293C9.10536 5.48053 9 5.73489 9 6.0001V10.0001C9 10.2653 9.10536 10.5197 9.29289 10.7072C9.48043 10.8947 9.73478 11.0001 10 11.0001C10.2652 11.0001 10.5196 10.8947 10.7071 10.7072C10.8946 10.5197 11 10.2653 11 10.0001V6.0001C11 5.73489 10.8946 5.48053 10.7071 5.293C10.5196 5.10546 10.2652 5.0001 10 5.0001Z" fill="black"/>
</svg>
